<?xml version="1.0" standalone="no"?>
<!DOCTYPE svg PUBLIC "-//W3C//DTD SVG 20010904//EN"
 "http://www.w3.org/TR/2001/REC-SVG-20010904/DTD/svg10.dtd">
<svg version="1.0" xmlns="http://www.w3.org/2000/svg"
 width="1024.000000pt" height="1024.000000pt" viewBox="0 0 1024.000000 1024.000000"
 preserveAspectRatio="xMidYMid meet">

<g transform="translate(0.000000,1024.000000) scale(0.100000,-0.100000)"
fill="#003932" stroke="none">
<path d="M5167 8552 c-38 -42 -8 -112 47 -112 39 0 66 26 66 63 0 57 -77 89
-113 49z"/>
<path d="M4838 8304 c-34 -18 -48 -43 -48 -84 0 -102 105 -143 176 -69 82 86
-22 211 -128 153z"/>
<path d="M5521 8256 c-70 -39 -63 -149 12 -181 68 -28 142 22 142 96 0 76 -86
123 -154 85z"/>
<path d="M5125 7883 c-31 -8 -83 -51 -100 -83 -19 -37 -19 -113 -1 -148 26
-50 71 -84 120 -89 62 -7 90 2 136 43 69 63 74 152 13 225 -42 49 -102 68
-168 52z"/>
<path d="M4384 7679 c-109 -18 -371 -117 -543 -203 -578 -289 -999 -717 -1290
-1310 -122 -248 -190 -463 -238 -754 -26 -156 -28 -186 -28 -462 1 -314 5
-358 61 -609 115 -515 370 -979 759 -1380 95 -98 267 -251 283 -251 7 0 35 59
197 417 l87 193 -106 107 c-133 136 -197 217 -293 368 -173 271 -286 585 -329
909 -19 147 -14 437 11 593 70 446 304 886 646 1219 217 210 464 365 779 489
186 73 213 87 270 141 102 96 134 249 77 366 -64 130 -193 194 -343 167z"/>
<path d="M5714 7664 c-58 -21 -115 -73 -149 -135 -27 -49 -30 -62 -30 -149 1
-80 4 -102 24 -140 60 -114 111 -153 311 -233 344 -138 572 -281 804 -507 137
-133 228 -244 321 -390 187 -295 303 -620 334 -944 34 -340 -28 -718 -172
-1056 -162 -382 -435 -708 -787 -941 -141 -94 -378 -210 -529 -259 -254 -83
-557 -127 -802 -117 l-136 6 -127 -299 c-71 -164 -128 -303 -128 -307 2 -24
286 -55 507 -56 554 -1 1090 162 1570 477 314 207 592 483 802 796 287 429
463 1025 463 1565 0 1004 -579 1965 -1477 2453 -121 65 -365 173 -483 212
-115 39 -249 49 -316 24z"/>
<path d="M5026 6913 c21 -49 44 -197 44 -288 0 -266 -107 -467 -362 -682 -157
-133 -267 -298 -299 -448 -16 -76 -17 -276 -1 -335 52 -187 165 -354 305 -447
231 -153 525 -169 772 -40 98 51 234 181 288 275 48 82 92 209 107 307 33 219
-45 483 -266 897 -142 268 -305 497 -478 676 -95 98 -127 122 -110 85z"/>
<path d="M5939 6641 c-76 -25 -125 -99 -116 -177 10 -91 103 -164 186 -145 99
22 145 79 138 174 -3 60 -22 95 -69 130 -29 22 -100 31 -139 18z"/>
<path d="M4102 6565 c-16 -14 -33 -37 -36 -51 -9 -36 10 -90 41 -114 41 -32
79 -26 125 20 37 36 40 44 35 78 -13 81 -104 118 -165 67z"/>
<path d="M4466 4272 c-44 -103 -107 -254 -142 -337 -171 -412 -508 -1208 -549
-1300 -15 -33 -51 -118 -80 -190 -176 -432 -205 -505 -205 -519 0 -8 27 -24
68 -40 37 -14 160 -61 274 -104 l206 -79 27 61 c15 34 72 169 127 301 55 132
135 323 178 425 92 217 180 426 297 710 47 113 103 248 125 300 92 220 318
771 318 776 0 2 -39 4 -87 4 -161 0 -274 36 -400 127 -41 29 -75 53 -76 53 -1
0 -38 -85 -81 -188z"/>
</g>
</svg>
